# xmcd
#
# Track frame offsets: 
#        150
#        15521
#        31841
#        46339
#        60981
#        78645
#        95009
#        107203
#        123703
#        141943
#        155608
#
# Disc length: 2222 seconds
#
# Revision: 0
# Processed by: cddbd v1.5.2PL0 Copyright (c) Steve Scherf et al.
# Submitted via: ExactAudioCopy v1.3
#
DISCID=8f08ac0b
DTITLE=Laney Lou and the Bird Dogs - Sweet Little Lies
DYEAR=2019
DGENRE=Country
TTITLE0=Carolina
TTITLE1=Time or Tears
TTITLE2=Gamblin' Man
TTITLE3=Sweet Little Lies
TTITLE4=Black Train
TTITLE5=By the Fire
TTITLE6=Two Days of Rain
TTITLE7=Waiting on You
TTITLE8=House of Burdens
TTITLE9=Ain't Lovin' Nobody
TTITLE10=Highway 45
EXTD=
EXTT0=
EXTT1=
EXTT2=
EXTT3=
EXTT4=
EXTT5=
EXTT6=
EXTT7=
EXTT8=
EXTT9=
EXTT10=
PLAYORDER=
